<svg fill="#000000" xmlns="http://www.w3.org/2000/svg"  viewBox="0 0 24 24" width="96px" height="96px" fill-rule="evenodd" clip-rule="evenodd"><path d="M21.166 17.01l0-1.526c0-.447-.157-.873-.423-1.19-.309-.366-.733-.559-1.169-.559 0 0-15.148 0-15.148 0-.436 0-.86.193-1.169.559-.266.317-.423.743-.423 1.19 0 0 0 1.526 0 1.526 0 1.314.686 2.547 1.903 3.533 1.64 1.328 4.28 2.213 7.263 2.213 2.983 0 5.623-.885 7.263-2.213 1.217-.986 1.903-2.219 1.903-3.533zM12 1.2560000000000002A5.747 5.747 0 1012 12.75 5.747 5.747 0 1012 1.2560000000000002z"/></svg>